# xmcd
#
# Track frame offsets:
# 182
# 22760
# 37462
# 52777
# 74487
# 90757
# 111355
# 125605
# 140217
# 167142
#
# Disc length: 2422 seconds
#
# Revision: 2
# Processed by: cddbd v1.4PL0 Copyright (c) Steve Scherf et al.
# Submitted via: Axialis_AX_CDPlayer 2.6
#
DISCID=8a09740a
DTITLE=Robert Køes»an and Druhá tráva - Robert Køes»an a Druhá tráva
DYEAR=1900
DGENRE=
TTITLE0=Zá¹»
TTITLE1=©panìlský nebe
TTITLE2=Je¹tì jedno kafe
TTITLE3=Vra» se
TTITLE4=Záti¹í s buvoly
TTITLE5=Smuteèní mar¹e
TTITLE6=Praha bolestivosti
TTITLE7=V nevysokých horách
TTITLE8=Ne¾ zazvoní hrana
TTITLE9=Letní romance
EXTD=
EXTT0=
EXTT1=
EXTT2=
EXTT3=
EXTT4=
EXTT5=
EXTT6=
EXTT7=
EXTT8=
EXTT9=
PLAYORDER=
